{
  "accessors": [
    {
      "bufferView": 2,
      "componentType": 5126,
      "count": 2011,
      "max": [
        327.06646728515625,
        327.07113647460938,
        195.56901550292969
      ],
      "min": [
        -327.06646728515625,
        -327.07113647460938,
        -326.87649536132812
      ],
      "type": "VEC3"
    },
    {
      "bufferView": 2,
      "byteOffset": 24132,
      "componentType": 5126,
      "count": 2011,
      "max": [
        0.99999123811721802,
        0.99998724460601807,
        1
      ],
      "min": [
        -0.99999123811721802,
        -0.99998724460601807,
        -1
      ],
      "type": "VEC3"
    },
    {
      "bufferView": 3,
      "componentType": 5126,
      "count": 2011,
      "max": [
        0.99998009204864502,
        0.99954545497894287,
        0.99953913688659668,
        1
      ],
      "min": [
        -0.99984252452850342,
        -0.99974948167800903,
        -0.98885518312454224,
        -1
      ],
      "type": "VEC4"
    },
    {
      "bufferView": 1,
      "componentType": 5126,
      "count": 2011,
      "max": [
        0.99000000953674316,
        0.99000000953674316
      ],
      "min": [
        0.0099999997764825821,
        0.0099999997764825821
      ],
      "type": "VEC2"
    },
    {
      "bufferView": 0,
      "componentType": 5125,
      "count": 10224,
      "max": [
        2010
      ],
      "min": [
        0
      ],
      "type": "SCALAR"
    }
  ],
  "asset": {
    "extras": {
      "author": "shedmon (https://sketchfab.com/shedmon)",
      "license": "CC-BY-4.0 (http://creativecommons.org/licenses/by/4.0/)",
      "source": "https://sketchfab.com/3d-models/round-table-86091129fc304b5d951dbd5352dcb04f",
      "title": "Round Table"
    },
    "generator": "Sketchfab-8.47.0",
    "version": "2.0"
  },
  "bufferViews": [
    {
      "buffer": 0,
      "byteLength": 40896,
      "byteOffset": 0,
      "name": "floatBufferViews",
      "target": 34963
    },
    {
      "buffer": 0,
      "byteLength": 16088,
      "byteOffset": 40896,
      "byteStride": 8,
      "name": "floatBufferViews",
      "target": 34962
    },
    {
      "buffer": 0,
      "byteLength": 48264,
      "byteOffset": 56984,
      "byteStride": 12,
      "name": "floatBufferViews",
      "target": 34962
    },
    {
      "buffer": 0,
      "byteLength": 32176,
      "byteOffset": 105248,
      "byteStride": 16,
      "name": "floatBufferViews",
      "target": 34962
    }
  ],
  "buffers": [
    {
      "byteLength": 137424,
      "uri": "scene.bin"
    }
  ],
  "images": [
    {
      "uri": "textures/Default_baseColor.png"
    },
    {
      "uri": "textures/Default_metallicRoughness.png"
    },
    {
      "uri": "textures/Default_normal.png"
    }
  ],
  "materials": [
    {
      "doubleSided": true,
      "name": "Default",
      "normalTexture": {
        "index": 2,
        "scale": 1,
        "texCoord": 0
      },
      "occlusionTexture": {
        "index": 1,
        "strength": 1,
        "texCoord": 0
      },
      "pbrMetallicRoughness": {
        "baseColorFactor": [
          1,
          1,
          1,
          1
        ],
        "baseColorTexture": {
          "index": 0,
          "texCoord": 0
        },
        "metallicFactor": 1,
        "metallicRoughnessTexture": {
          "index": 1,
          "texCoord": 0
        },
        "roughnessFactor": 1
      }
    }
  ],
  "meshes": [
    {
      "primitives": [
        {
          "attributes": {
            "NORMAL": 1,
            "POSITION": 0,
            "TANGENT": 2,
            "TEXCOORD_0": 3
          },
          "indices": 4,
          "material": 0,
          "mode": 4
        }
      ]
    }
  ],
  "nodes": [
    {
      "children": [
        1
      ],
      "name": "RootNode (gltf orientation matrix)",
      "rotation": [
        -0.70710678118654746,
        -0,
        -0,
        0.70710678118654757
      ]
    },
    {
      "children": [
        2
      ],
      "matrix": [
        0.0018636399181559682,
        0,
        0,
        0,
        0,
        0.0018636399181559682,
        0,
        0,
        0,
        0,
        0.0018636399181559682,
        0,
        0,
        0,
        0,
        1
      ],
      "name": "RootNode (model correction matrix)"
    },
    {
      "children": [
        3
      ],
      "name": "fcbe6eb49cb3470b9edf269e24775f2f.obj.cleaner.materialmerger.gles"
    },
    {
      "mesh": 0,
      "name": ""
    }
  ],
  "samplers": [
    {
      "magFilter": 9729,
      "minFilter": 9987,
      "wrapS": 10497,
      "wrapT": 10497
    }
  ],
  "scene": 0,
  "scenes": [
    {
      "name": "OSG_Scene",
      "nodes": [
        0
      ]
    }
  ],
  "textures": [
    {
      "sampler": 0,
      "source": 0
    },
    {
      "sampler": 0,
      "source": 1
    },
    {
      "sampler": 0,
      "source": 2
    }
  ]
}

